<svg width="237" height="283" viewBox="0 0 237 283" fill="none" xmlns="http://www.w3.org/2000/svg">
<g filter="url(#filter0_f_1_2890)">
<path d="M181.738 355L5.89331 234.958L120.095 196.674L373.157 275.188L181.738 355Z" fill="url(#paint0_linear_1_2890)"/>
</g>
<g filter="url(#filter1_f_1_2890)">
<ellipse cx="78.5673" cy="218.087" rx="64.8875" ry="36.337" fill="#666666"/>
</g>
<g filter="url(#filter2_i_1_2890)">
<path d="M152.529 214.592C152.529 237.886 119.12 256.769 77.9081 256.769C36.6963 256.769 3.28748 237.886 3.28748 214.592C5.2341 151.65 36.6963 172.415 77.9081 172.415C119.12 172.415 152.529 149.055 152.529 214.592Z" fill="#E0E1EF"/>
</g>
<g filter="url(#filter3_i_1_2890)">
<ellipse cx="77.9081" cy="200.317" rx="74.6207" ry="42.1769" fill="#D5CBFF"/>
</g>
<g filter="url(#filter4_bi_1_2890)">
<path d="M3.11962 197.487C38.5765 153.467 104.263 149.616 144.621 189.19L153.082 197.487V146.847C153.082 146.847 143.57 109.076 78.3807 109.076C13.1917 109.076 2.56006 146.847 2.56006 146.847L3.11962 197.487Z" fill="url(#paint1_linear_1_2890)" fill-opacity="0.3"/>
<path d="M3.20998 146.938L3.74876 195.697C39.6976 152.685 104.87 149.302 145.076 188.727L152.433 195.942V146.932C152.432 146.926 152.43 146.92 152.428 146.913C152.41 146.847 152.381 146.747 152.34 146.614C152.258 146.349 152.128 145.956 151.939 145.452C151.561 144.444 150.946 142.995 150.006 141.253C148.127 137.769 144.945 133.109 139.744 128.445C129.354 119.125 110.841 109.725 78.3807 109.725C45.9205 109.725 27.1237 119.125 16.4515 128.45C11.1098 133.118 7.78793 137.78 5.80377 141.266C4.81159 143.009 4.15393 144.459 3.74568 145.467C3.54157 145.971 3.39986 146.365 3.30989 146.631C3.26491 146.764 3.23287 146.864 3.21244 146.93C3.2116 146.933 3.21078 146.935 3.20998 146.938Z" stroke="url(#paint2_linear_1_2890)" stroke-opacity="0.5" stroke-width="1.29775"/>
</g>
<circle cx="77.9081" cy="183.446" r="44.7724" fill="url(#paint3_linear_1_2890)"/>
<g filter="url(#filter5_bi_1_2890)">
<path d="M3.11962 155.789C38.5765 199.809 104.263 203.66 144.621 164.086L153.082 155.789V206.429C153.082 206.429 143.57 244.2 78.3807 244.2C13.1917 244.2 2.56006 206.429 2.56006 206.429L3.11962 155.789Z" fill="url(#paint4_linear_1_2890)" fill-opacity="0.3"/>
<path d="M3.20998 206.338L3.74876 157.579C39.6976 200.591 104.87 203.974 145.076 164.549L152.433 157.334V206.344C152.432 206.35 152.43 206.356 152.428 206.363C152.41 206.429 152.381 206.529 152.34 206.662C152.258 206.927 152.128 207.321 151.939 207.824C151.561 208.832 150.946 210.281 150.006 212.023C148.127 215.507 144.945 220.167 139.744 224.832C129.354 234.151 110.841 243.551 78.3807 243.551C45.9205 243.551 27.1237 234.151 16.4515 224.826C11.1098 220.158 7.78793 215.496 5.80377 212.01C4.81159 210.267 4.15393 208.817 3.74568 207.809C3.54157 207.305 3.39986 206.911 3.30989 206.645C3.26491 206.513 3.23287 206.412 3.21244 206.346C3.2116 206.343 3.21078 206.341 3.20998 206.338Z" stroke="url(#paint5_linear_1_2890)" stroke-opacity="0.5" stroke-width="1.29775"/>
</g>
<g filter="url(#filter6_bi_1_2890)">
<ellipse cx="77.8189" cy="152.344" rx="75.8189" ry="42.4389" fill="url(#paint6_linear_1_2890)"/>
<ellipse cx="77.8189" cy="152.344" rx="75.8189" ry="42.4389" fill="url(#paint7_radial_1_2890)" fill-opacity="0.7"/>
<path d="M152.989 152.344C152.989 163.723 144.742 174.159 131.114 181.787C117.507 189.403 98.6659 194.134 77.8189 194.134C56.9719 194.134 38.1305 189.403 24.5238 181.787C10.896 174.159 2.64888 163.723 2.64888 152.344C2.64888 140.965 10.896 130.529 24.5238 122.901C38.1305 115.285 56.9719 110.554 77.8189 110.554C98.6659 110.554 117.507 115.285 131.114 122.901C144.742 130.529 152.989 140.965 152.989 152.344Z" stroke="url(#paint8_linear_1_2890)" stroke-width="1.29775"/>
</g>
<g filter="url(#filter7_b_1_2890)">
<path d="M156.233 43.3331V147.153C156.233 138.904 152.028 131.204 144.753 124.689C140.828 121.175 136.01 118.006 130.477 115.281C125.408 112.784 119.739 110.661 113.607 108.986C108.63 107.628 103.348 106.565 97.8345 105.84C92.2412 105.104 86.409 104.714 80.4144 104.714C74.4198 104.714 68.5876 105.104 62.9943 105.84C55.3449 106.846 48.1422 108.502 41.5814 110.696C35.4501 112.746 29.8794 115.268 25.0288 118.171C23.2197 119.254 20.8174 117.995 20.8174 115.887V22.4542C20.8174 19.0926 22.4197 15.8945 25.3124 14.182C30.0962 11.3499 35.5692 8.88643 41.5814 6.8757C48.1422 4.68149 55.3449 3.02639 62.9943 2.01971C68.5876 1.28361 74.4198 0.894196 80.4144 0.894196C86.409 0.894196 92.2412 1.28361 97.8345 2.01971C104.073 2.84073 110.015 4.09306 115.553 5.71739C120.942 7.29781 125.949 9.2304 130.477 11.4605C136.01 14.1857 140.828 17.3551 144.753 20.8691C152.028 27.3841 156.233 35.0837 156.233 43.3331Z" fill="url(#paint9_linear_1_2890)"/>
<path d="M155.909 43.3331V141.538C154.457 135.306 150.624 129.512 144.969 124.447C141.019 120.911 136.176 117.725 130.621 114.99C125.531 112.483 119.843 110.352 113.692 108.673C108.701 107.311 103.405 106.246 97.8768 105.518C92.2693 104.78 86.423 104.39 80.4144 104.39C74.4058 104.39 68.5595 104.78 62.952 105.518C55.2833 106.527 48.0602 108.187 41.4785 110.388C35.3278 112.445 29.7353 114.976 24.8622 117.892C23.2511 118.857 21.1418 117.722 21.1418 115.887V22.4542C21.1418 19.1921 22.6959 16.108 25.4776 14.4611C30.2394 11.6421 35.6912 9.18775 41.6843 7.18339C48.2241 4.99618 55.4065 3.34552 63.0366 2.34137C68.6157 1.60714 74.4337 1.21863 80.4144 1.21863C86.395 1.21863 92.213 1.60714 97.7922 2.34137C104.015 3.16032 109.94 4.40931 115.462 6.02872C120.834 7.60437 125.824 9.53042 130.334 11.7516C135.845 14.466 140.637 17.6197 144.536 21.1108C151.765 27.5842 155.909 35.2022 155.909 43.3331Z" stroke="white" stroke-width="0.648875"/>
</g>
<g filter="url(#filter8_f_1_2890)">
<path d="M142.806 164.23L62.2686 122.979C60.3109 121.976 57.9967 121.947 56.0149 122.902L41.6412 129.822L125.286 172.666L142.806 164.23Z" fill="#6F53FF" fill-opacity="0.6"/>
<path d="M62.0922 123.323L141.936 164.22L125.292 172.234L42.5108 129.833L56.1827 123.25C58.0554 122.349 60.2423 122.375 62.0922 123.323Z" stroke="url(#paint10_linear_1_2890)" stroke-width="0.773782"/>
</g>
<path d="M65.9149 106.475L65.8994 106.448L65.8872 106.42C63.1035 99.9677 62.6937 95.1732 62.3827 91.5333C62.3394 91.0273 62.2981 90.5436 62.2526 90.0808C62.1411 88.948 61.7345 88.1589 61.2152 87.6597C60.696 87.1607 60.0332 86.9208 59.3442 86.9349C57.9728 86.9629 56.4194 88.0167 55.8729 90.2303C55.2586 92.7186 54.9348 95.4448 54.6019 98.2471C54.4457 99.5617 54.2876 100.893 54.0965 102.225C53.505 106.346 52.5994 110.424 50.4016 113.668C49.6214 114.82 48.137 115.689 46.5164 116.383C44.8749 117.086 42.9869 117.654 41.3008 118.151C40.5075 118.385 40.4034 119.393 41.183 119.779L126.724 162.184L133.278 157.727C133.6 157.508 133.759 157.149 133.703 156.779C133.307 154.148 132.89 151.199 132.446 148.063C130.739 135.993 128.642 121.169 125.844 111.134C124.964 107.977 124.022 105.323 123.013 103.39C122.509 102.424 121.998 101.656 121.483 101.098C120.967 100.539 120.472 100.217 120.001 100.093C119.124 99.8616 118.03 100.267 116.677 102.04C115.338 103.797 113.872 106.746 112.28 111.167C111.266 113.985 110.328 116.215 109.457 117.916C108.59 119.608 107.77 120.813 106.978 121.547C106.179 122.288 105.321 122.622 104.453 122.341C103.643 122.079 102.998 121.326 102.463 120.36C101.382 118.408 100.502 115.118 99.7218 111.094C98.9377 107.05 98.2429 102.195 97.5581 97.0684C97.3463 95.4821 97.1354 93.8699 96.9231 92.2471C95.7607 83.3606 94.5569 74.1574 92.926 67.1557C91.9593 63.0052 90.8572 59.6987 89.5634 57.6961C88.9172 56.6959 88.2603 56.0799 87.6052 55.8115C86.9801 55.5553 86.2837 55.5858 85.4575 56.042C83.6861 57.02 82.1645 58.7225 80.8508 60.9832C79.5384 63.2417 78.4526 66.0245 77.538 69.1159C75.7083 75.3005 74.5863 82.6415 73.6795 89.3235C73.5247 90.4638 73.3761 91.5864 73.2312 92.6814C72.5312 97.9692 71.9164 102.613 71.1071 105.503C70.8616 106.379 70.5902 107.126 70.2781 107.692C69.9754 108.241 69.581 108.718 69.0414 108.891C68.4558 109.078 67.893 108.854 67.4042 108.438C66.9206 108.027 66.4292 107.367 65.9149 106.475Z" fill="url(#paint11_linear_1_2890)" fill-opacity="0.7" stroke="url(#paint12_linear_1_2890)" stroke-width="1.06463"/>
<path d="M59.8314 112.559L59.8159 112.532L59.8037 112.503C57.02 106.051 56.6103 101.257 56.2992 97.6168C56.256 97.1108 56.2146 96.627 56.1691 96.1643C56.0579 95.0347 55.6449 94.2358 55.1063 93.72C54.5667 93.2033 53.8701 92.9404 53.1334 92.9338C51.6632 92.9208 49.9928 93.9413 49.2769 96.1041C48.666 97.9498 48.2588 99.8887 47.8819 101.853C47.8143 102.205 47.7475 102.559 47.6808 102.913C47.3773 104.521 47.0723 106.138 46.6725 107.691C45.6939 111.494 44.1212 115.033 40.4755 117.455C40.084 117.715 39.8599 118.179 39.8541 118.644C39.8484 119.103 40.0513 119.489 40.4282 119.675L125.903 161.938C126.625 162.295 127.445 161.697 127.33 160.908C127.022 158.803 126.701 156.533 126.364 154.157C124.603 141.704 122.427 126.321 119.497 116.292C118.625 113.309 117.695 110.831 116.704 109.056C115.694 107.245 114.703 106.315 113.778 106.145C112.911 105.986 111.824 106.463 110.495 108.256C109.181 110.028 107.748 112.94 106.197 117.25C105.182 120.069 104.245 122.299 103.373 123.999C102.506 125.691 101.687 126.896 100.894 127.631C100.096 128.371 99.2376 128.706 98.37 128.425C97.5594 128.162 96.9146 127.41 96.3799 126.444C95.2989 124.491 94.4185 121.201 93.6383 117.178C92.8542 113.134 92.1594 108.279 91.4746 103.152C91.2628 101.566 91.0519 99.9533 90.8396 98.3305C89.6772 89.444 88.4734 80.2408 86.8426 73.2391C85.8758 69.0887 84.7737 65.7822 83.4799 63.7796C82.8337 62.7794 82.1768 62.1634 81.5218 61.895C80.8966 61.6388 80.2002 61.6693 79.374 62.1254C77.6027 63.1035 76.081 64.806 74.7673 67.0667C73.4549 69.3252 72.3691 72.108 71.4545 75.1994C69.6248 81.384 68.5028 88.725 67.596 95.407C67.4413 96.5473 67.2926 97.67 67.1477 98.765C66.4477 104.053 65.8329 108.696 65.0236 111.586C64.7781 112.463 64.5067 113.209 64.1946 113.775C63.8919 114.324 63.4975 114.801 62.9579 114.974C62.3723 115.162 61.8095 114.938 61.3207 114.522C60.8372 114.11 60.3457 113.45 59.8314 112.559Z" fill="url(#paint13_linear_1_2890)" fill-opacity="0.7"/>
<path d="M59.8314 112.559L59.8159 112.532L59.8037 112.503C57.02 106.051 56.6103 101.257 56.2992 97.6168C56.256 97.1108 56.2146 96.627 56.1691 96.1643C56.0579 95.0347 55.6449 94.2358 55.1063 93.72C54.5667 93.2033 53.8701 92.9404 53.1334 92.9338C51.6632 92.9208 49.9928 93.9413 49.2769 96.1041C48.666 97.9498 48.2588 99.8887 47.8819 101.853C47.8143 102.205 47.7475 102.559 47.6808 102.913C47.3773 104.521 47.0723 106.138 46.6725 107.691C45.6939 111.494 44.1212 115.033 40.4755 117.455C40.084 117.715 39.8599 118.179 39.8541 118.644C39.8484 119.103 40.0513 119.489 40.4282 119.675L125.903 161.938C126.625 162.295 127.445 161.697 127.33 160.908C127.022 158.803 126.701 156.533 126.364 154.157C124.603 141.704 122.427 126.321 119.497 116.292C118.625 113.309 117.695 110.831 116.704 109.056C115.694 107.245 114.703 106.315 113.778 106.145C112.911 105.986 111.824 106.463 110.495 108.256C109.181 110.028 107.748 112.94 106.197 117.25C105.182 120.069 104.245 122.299 103.373 123.999C102.506 125.691 101.687 126.896 100.894 127.631C100.096 128.371 99.2376 128.706 98.37 128.425C97.5594 128.162 96.9146 127.41 96.3799 126.444C95.2989 124.491 94.4185 121.201 93.6383 117.178C92.8542 113.134 92.1594 108.279 91.4746 103.152C91.2628 101.566 91.0519 99.9533 90.8396 98.3305C89.6772 89.444 88.4734 80.2408 86.8426 73.2391C85.8758 69.0887 84.7737 65.7822 83.4799 63.7796C82.8337 62.7794 82.1768 62.1634 81.5218 61.895C80.8966 61.6388 80.2002 61.6693 79.374 62.1254C77.6027 63.1035 76.081 64.806 74.7673 67.0667C73.4549 69.3252 72.3691 72.108 71.4545 75.1994C69.6248 81.384 68.5028 88.725 67.596 95.407C67.4413 96.5473 67.2926 97.67 67.1477 98.765C66.4477 104.053 65.8329 108.696 65.0236 111.586C64.7781 112.463 64.5067 113.209 64.1946 113.775C63.8919 114.324 63.4975 114.801 62.9579 114.974C62.3723 115.162 61.8095 114.938 61.3207 114.522C60.8372 114.11 60.3457 113.45 59.8314 112.559Z" fill="url(#paint14_radial_1_2890)" fill-opacity="0.8"/>
<path d="M59.8314 112.559L59.8159 112.532L59.8037 112.503C57.02 106.051 56.6103 101.257 56.2992 97.6168C56.256 97.1108 56.2146 96.627 56.1691 96.1643C56.0579 95.0347 55.6449 94.2358 55.1063 93.72C54.5667 93.2033 53.8701 92.9404 53.1334 92.9338C51.6632 92.9208 49.9928 93.9413 49.2769 96.1041C48.666 97.9498 48.2588 99.8887 47.8819 101.853C47.8143 102.205 47.7475 102.559 47.6808 102.913C47.3773 104.521 47.0723 106.138 46.6725 107.691C45.6939 111.494 44.1212 115.033 40.4755 117.455C40.084 117.715 39.8599 118.179 39.8541 118.644C39.8484 119.103 40.0513 119.489 40.4282 119.675L125.903 161.938C126.625 162.295 127.445 161.697 127.33 160.908C127.022 158.803 126.701 156.533 126.364 154.157C124.603 141.704 122.427 126.321 119.497 116.292C118.625 113.309 117.695 110.831 116.704 109.056C115.694 107.245 114.703 106.315 113.778 106.145C112.911 105.986 111.824 106.463 110.495 108.256C109.181 110.028 107.748 112.94 106.197 117.25C105.182 120.069 104.245 122.299 103.373 123.999C102.506 125.691 101.687 126.896 100.894 127.631C100.096 128.371 99.2376 128.706 98.37 128.425C97.5594 128.162 96.9146 127.41 96.3799 126.444C95.2989 124.491 94.4185 121.201 93.6383 117.178C92.8542 113.134 92.1594 108.279 91.4746 103.152C91.2628 101.566 91.0519 99.9533 90.8396 98.3305C89.6772 89.444 88.4734 80.2408 86.8426 73.2391C85.8758 69.0887 84.7737 65.7822 83.4799 63.7796C82.8337 62.7794 82.1768 62.1634 81.5218 61.895C80.8966 61.6388 80.2002 61.6693 79.374 62.1254C77.6027 63.1035 76.081 64.806 74.7673 67.0667C73.4549 69.3252 72.3691 72.108 71.4545 75.1994C69.6248 81.384 68.5028 88.725 67.596 95.407C67.4413 96.5473 67.2926 97.67 67.1477 98.765C66.4477 104.053 65.8329 108.696 65.0236 111.586C64.7781 112.463 64.5067 113.209 64.1946 113.775C63.8919 114.324 63.4975 114.801 62.9579 114.974C62.3723 115.162 61.8095 114.938 61.3207 114.522C60.8372 114.11 60.3457 113.45 59.8314 112.559Z" stroke="url(#paint15_linear_1_2890)" stroke-width="1.06463"/>
<defs>
<filter id="filter0_f_1_2890" x="0.702308" y="191.483" width="377.645" height="168.708" filterUnits="userSpaceOnUse" color-interpolation-filters="sRGB">
<feFlood flood-opacity="0" result="BackgroundImageFix"/>
<feBlend mode="normal" in="SourceGraphic" in2="BackgroundImageFix" result="shape"/>
<feGaussianBlur stdDeviation="2.5955" result="effect1_foregroundBlur_1_2890"/>
</filter>
<filter id="filter1_f_1_2890" x="5.89331" y="173.964" width="145.348" height="88.2471" filterUnits="userSpaceOnUse" color-interpolation-filters="sRGB">
<feFlood flood-opacity="0" result="BackgroundImageFix"/>
<feBlend mode="normal" in="SourceGraphic" in2="BackgroundImageFix" result="shape"/>
<feGaussianBlur stdDeviation="3.89325" result="effect1_foregroundBlur_1_2890"/>
</filter>
<filter id="filter2_i_1_2890" x="3.28748" y="168.369" width="149.241" height="90.9957" filterUnits="userSpaceOnUse" color-interpolation-filters="sRGB">
<feFlood flood-opacity="0" result="BackgroundImageFix"/>
<feBlend mode="normal" in="SourceGraphic" in2="BackgroundImageFix" result="shape"/>
<feColorMatrix in="SourceAlpha" type="matrix" values="0 0 0 0 0 0 0 0 0 0 0 0 0 0 0 0 0 0 127 0" result="hardAlpha"/>
<feOffset dy="2.5955"/>
<feGaussianBlur stdDeviation="1.29775"/>
<feComposite in2="hardAlpha" operator="arithmetic" k2="-1" k3="1"/>
<feColorMatrix type="matrix" values="0 0 0 0 1 0 0 0 0 1 0 0 0 0 1 0 0 0 0.4 0"/>
<feBlend mode="normal" in2="shape" result="effect1_innerShadow_1_2890"/>
</filter>
<filter id="filter3_i_1_2890" x="3.28748" y="158.14" width="149.241" height="84.3538" filterUnits="userSpaceOnUse" color-interpolation-filters="sRGB">
<feFlood flood-opacity="0" result="BackgroundImageFix"/>
<feBlend mode="normal" in="SourceGraphic" in2="BackgroundImageFix" result="shape"/>
<feColorMatrix in="SourceAlpha" type="matrix" values="0 0 0 0 0 0 0 0 0 0 0 0 0 0 0 0 0 0 127 0" result="hardAlpha"/>
<feOffset dx="-1.57546" dy="3.15092"/>
<feComposite in2="hardAlpha" operator="arithmetic" k2="-1" k3="1"/>
<feColorMatrix type="matrix" values="0 0 0 0 1 0 0 0 0 0.984314 0 0 0 0 0.933333 0 0 0 1 0"/>
<feBlend mode="normal" in2="shape" result="effect1_innerShadow_1_2890"/>
</filter>
<filter id="filter4_bi_1_2890" x="-23.395" y="83.1213" width="202.432" height="140.321" filterUnits="userSpaceOnUse" color-interpolation-filters="sRGB">
<feFlood flood-opacity="0" result="BackgroundImageFix"/>
<feGaussianBlur in="BackgroundImageFix" stdDeviation="12.9775"/>
<feComposite in2="SourceAlpha" operator="in" result="effect1_backgroundBlur_1_2890"/>
<feBlend mode="normal" in="SourceGraphic" in2="effect1_backgroundBlur_1_2890" result="shape"/>
<feColorMatrix in="SourceAlpha" type="matrix" values="0 0 0 0 0 0 0 0 0 0 0 0 0 0 0 0 0 0 127 0" result="hardAlpha"/>
<feOffset dx="8.95299"/>
<feGaussianBlur stdDeviation="2.5955"/>
<feComposite in2="hardAlpha" operator="arithmetic" k2="-1" k3="1"/>
<feColorMatrix type="matrix" values="0 0 0 0 1 0 0 0 0 0.984314 0 0 0 0 0.933333 0 0 0 0.6 0"/>
<feBlend mode="normal" in2="shape" result="effect2_innerShadow_1_2890"/>
</filter>
<filter id="filter5_bi_1_2890" x="-7.82195" y="145.407" width="171.286" height="109.175" filterUnits="userSpaceOnUse" color-interpolation-filters="sRGB">
<feFlood flood-opacity="0" result="BackgroundImageFix"/>
<feGaussianBlur in="BackgroundImageFix" stdDeviation="5.191"/>
<feComposite in2="SourceAlpha" operator="in" result="effect1_backgroundBlur_1_2890"/>
<feBlend mode="normal" in="SourceGraphic" in2="effect1_backgroundBlur_1_2890" result="shape"/>
<feColorMatrix in="SourceAlpha" type="matrix" values="0 0 0 0 0 0 0 0 0 0 0 0 0 0 0 0 0 0 127 0" result="hardAlpha"/>
<feOffset dx="8.95299"/>
<feGaussianBlur stdDeviation="2.5955"/>
<feComposite in2="hardAlpha" operator="arithmetic" k2="-1" k3="1"/>
<feColorMatrix type="matrix" values="0 0 0 0 1 0 0 0 0 0.984314 0 0 0 0 0.933333 0 0 0 0.6 0"/>
<feBlend mode="normal" in2="shape" result="effect2_innerShadow_1_2890"/>
</filter>
<filter id="filter6_bi_1_2890" x="-29.146" y="78.7592" width="213.93" height="147.17" filterUnits="userSpaceOnUse" color-interpolation-filters="sRGB">
<feFlood flood-opacity="0" result="BackgroundImageFix"/>
<feGaussianBlur in="BackgroundImageFix" stdDeviation="15.573"/>
<feComposite in2="SourceAlpha" operator="in" result="effect1_backgroundBlur_1_2890"/>
<feBlend mode="normal" in="SourceGraphic" in2="effect1_backgroundBlur_1_2890" result="shape"/>
<feColorMatrix in="SourceAlpha" type="matrix" values="0 0 0 0 0 0 0 0 0 0 0 0 0 0 0 0 0 0 127 0" result="hardAlpha"/>
<feOffset dy="5.191"/>
<feGaussianBlur stdDeviation="12.9775"/>
<feComposite in2="hardAlpha" operator="arithmetic" k2="-1" k3="1"/>
<feColorMatrix type="matrix" values="0 0 0 0 0.396078 0 0 0 0 0.384314 0 0 0 0 0.905882 0 0 0 0.2 0"/>
<feBlend mode="normal" in2="shape" result="effect2_innerShadow_1_2890"/>
</filter>
<filter id="filter7_b_1_2890" x="15.6264" y="-4.29681" width="145.798" height="156.641" filterUnits="userSpaceOnUse" color-interpolation-filters="sRGB">
<feFlood flood-opacity="0" result="BackgroundImageFix"/>
<feGaussianBlur in="BackgroundImageFix" stdDeviation="2.5955"/>
<feComposite in2="SourceAlpha" operator="in" result="effect1_backgroundBlur_1_2890"/>
<feBlend mode="normal" in="SourceGraphic" in2="effect1_backgroundBlur_1_2890" result="shape"/>
</filter>
<filter id="filter8_f_1_2890" x="31.2592" y="111.824" width="121.929" height="71.2243" filterUnits="userSpaceOnUse" color-interpolation-filters="sRGB">
<feFlood flood-opacity="0" result="BackgroundImageFix"/>
<feBlend mode="normal" in="SourceGraphic" in2="BackgroundImageFix" result="shape"/>
<feGaussianBlur stdDeviation="5.191" result="effect1_foregroundBlur_1_2890"/>
</filter>
<linearGradient id="paint0_linear_1_2890" x1="5.89332" y1="143.467" x2="176.506" y2="306.891" gradientUnits="userSpaceOnUse">
<stop stop-color="#E0E1EF"/>
<stop offset="1" stop-color="#D9D9D9" stop-opacity="0"/>
</linearGradient>
<linearGradient id="paint1_linear_1_2890" x1="77.2593" y1="112.079" x2="77.2593" y2="194.486" gradientUnits="userSpaceOnUse">
<stop stop-color="#6562E7"/>
<stop offset="1" stop-color="white" stop-opacity="0"/>
</linearGradient>
<linearGradient id="paint2_linear_1_2890" x1="7.82963" y1="190.593" x2="86.3436" y2="90.0171" gradientUnits="userSpaceOnUse">
<stop stop-color="white"/>
<stop offset="1" stop-color="white" stop-opacity="0"/>
</linearGradient>
<linearGradient id="paint3_linear_1_2890" x1="109.713" y1="231.714" x2="74.025" y2="147.36" gradientUnits="userSpaceOnUse">
<stop offset="0.0209596" stop-color="#6E6AFF"/>
<stop offset="0.96875" stop-color="white"/>
</linearGradient>
<linearGradient id="paint4_linear_1_2890" x1="77.2593" y1="241.197" x2="77.2593" y2="158.79" gradientUnits="userSpaceOnUse">
<stop stop-color="#6562E7"/>
<stop offset="1" stop-color="white" stop-opacity="0"/>
</linearGradient>
<linearGradient id="paint5_linear_1_2890" x1="144.093" y1="221.077" x2="6.53189" y2="175.007" gradientUnits="userSpaceOnUse">
<stop stop-color="white"/>
<stop offset="0.508594" stop-color="white" stop-opacity="0"/>
<stop offset="1" stop-color="white" stop-opacity="0"/>
</linearGradient>
<linearGradient id="paint6_linear_1_2890" x1="92.8324" y1="208.103" x2="92.1835" y2="90.6569" gradientUnits="userSpaceOnUse">
<stop stop-color="#FFACEC" stop-opacity="0.5"/>
<stop offset="1" stop-color="#EEEAFF" stop-opacity="0"/>
</linearGradient>
<radialGradient id="paint7_radial_1_2890" cx="0" cy="0" r="1" gradientUnits="userSpaceOnUse" gradientTransform="translate(27.296 138.671) rotate(41.3478) scale(21.6086 38.6047)">
<stop stop-color="white"/>
<stop offset="1" stop-color="white" stop-opacity="0"/>
</radialGradient>
<linearGradient id="paint8_linear_1_2890" x1="30.5404" y1="183.444" x2="130.467" y2="171.764" gradientUnits="userSpaceOnUse">
<stop stop-color="white" stop-opacity="0.8"/>
<stop offset="0.432766" stop-color="white" stop-opacity="0"/>
<stop offset="1" stop-color="white" stop-opacity="0"/>
</linearGradient>
<linearGradient id="paint9_linear_1_2890" x1="59.101" y1="0.894193" x2="130.477" y2="226.703" gradientUnits="userSpaceOnUse">
<stop stop-color="#D2C9FD" stop-opacity="0"/>
<stop offset="1" stop-color="#A187FF" stop-opacity="0.7"/>
</linearGradient>
<linearGradient id="paint10_linear_1_2890" x1="53.6249" y1="138.307" x2="58.9108" y2="153.455" gradientUnits="userSpaceOnUse">
<stop stop-color="white" stop-opacity="0.09"/>
<stop offset="0.846595" stop-color="white" stop-opacity="0.79"/>
<stop offset="1" stop-color="white" stop-opacity="0.17"/>
</linearGradient>
<linearGradient id="paint11_linear_1_2890" x1="88.7437" y1="55.1181" x2="88.7437" y2="159.299" gradientUnits="userSpaceOnUse">
<stop stop-color="#3E82FF"/>
<stop offset="1" stop-color="#4F30FF"/>
</linearGradient>
<linearGradient id="paint12_linear_1_2890" x1="123.357" y1="78.4911" x2="66.9718" y2="114.171" gradientUnits="userSpaceOnUse">
<stop stop-color="white" stop-opacity="0.09"/>
<stop offset="0.846595" stop-color="white" stop-opacity="0.79"/>
<stop offset="1" stop-color="white" stop-opacity="0.17"/>
</linearGradient>
<linearGradient id="paint13_linear_1_2890" x1="82.6602" y1="61.2016" x2="82.6602" y2="165.383" gradientUnits="userSpaceOnUse">
<stop stop-color="#3E82FF"/>
<stop offset="1" stop-color="#4F30FF"/>
</linearGradient>
<radialGradient id="paint14_radial_1_2890" cx="0" cy="0" r="1" gradientUnits="userSpaceOnUse" gradientTransform="translate(71.2535 100.442) rotate(81.1796) scale(44.6338 39.7331)">
<stop stop-color="white"/>
<stop offset="1" stop-color="white" stop-opacity="0"/>
</radialGradient>
<linearGradient id="paint15_linear_1_2890" x1="117.273" y1="84.5746" x2="60.8883" y2="120.254" gradientUnits="userSpaceOnUse">
<stop stop-color="white" stop-opacity="0.09"/>
<stop offset="0.846595" stop-color="white" stop-opacity="0.79"/>
<stop offset="1" stop-color="white" stop-opacity="0.17"/>
</linearGradient>
</defs>
</svg>
